<?xml version="1.0" encoding="UTF-8"?>
<svg width="323px" height="304px" viewBox="0 0 323 304" version="1.1" xmlns="http://www.w3.org/2000/svg" xmlns:xlink="http://www.w3.org/1999/xlink">
    <!-- Generator: Sketch 43.1 (39012) - http://www.bohemiancoding.com/sketch -->
    <title>buy</title>
    <desc>Created with Sketch.</desc>
    <defs></defs>
    <g id="Page-1" stroke="none" stroke-width="1" fill="none" fill-rule="evenodd">
        <g id="buy" fill-rule="nonzero">
            <path d="M74.96,164.36 L163.575,164.36 C169.877,164.36 175.39,167.905 177.753,173.418 L177.753,173.418 C181.691,181.689 177.359,191.535 168.695,194.686 L133.249,207.289 C129.704,208.471 129.311,213.591 132.855,215.166 L175.39,236.04 C181.298,239.191 188.387,239.585 194.688,237.615 L284.485,209.652 C296.694,205.714 309.691,212.409 314.023,224.224 L314.023,224.224 C318.355,236.433 312.448,250.218 299.845,254.944 L178.54,301.024 C171.451,303.781 163.574,303.781 156.485,300.63 L51.723,256.52 L74.96,164.36 Z" id="Shape" fill="#E3CA95"></path>
            <polygon id="Shape" fill="#324A5E" points="48.966 268.335 0.523 256.126 29.668 140.335 78.111 152.545"></polygon>
            <circle id="Oval" fill="#FFFFFF" cx="29.668" cy="242.342" r="10.24"></circle>
            <rect id="Rectangle-path" fill="#2C9984" x="82.443" y="0.52" width="240.246" height="134.302"></rect>
            <g id="Group" transform="translate(94.000000, 12.000000)" fill="#E6E9EE">
                <path d="M202.302,111.006 L15.225,111.006 L15.225,108.249 C15.225,101.947 10.105,96.434 3.41,96.434 L0.653,96.434 L0.653,14.908 L3.41,14.908 C9.712,14.908 15.225,9.788 15.225,3.093 L15.225,0.336 L202.696,0.336 L202.696,3.093 C202.696,9.395 207.816,14.908 214.511,14.908 L217.268,14.908 L217.268,96.434 L214.511,96.434 C208.209,96.434 202.696,101.554 202.696,108.249 L202.696,111.006 L202.302,111.006 L202.302,111.006 Z M20.738,105.492 L196.787,105.492 C197.969,98.009 203.876,92.101 211.359,90.92 L211.359,20.815 C203.876,19.633 197.968,13.726 196.787,6.243 L20.738,6.243 C19.556,13.726 13.649,19.634 6.166,20.815 L6.166,90.92 C13.649,92.102 19.557,98.009 20.738,105.492 Z" id="Shape"></path>
                <ellipse id="Oval" cx="108.566" cy="55.868" rx="36.628" ry="43.323"></ellipse>
            </g>
            <path d="M200.991,100.163 L200.991,94.649 C193.902,93.861 187.6,90.711 181.693,85.984 L187.207,79.289 C191.539,83.227 195.872,85.197 200.598,85.984 L200.598,71.018 C194.69,69.443 190.358,67.867 187.601,65.504 C184.844,63.141 183.663,59.99 183.663,55.264 C183.663,50.932 185.238,46.993 188.389,44.236 C191.54,41.479 195.478,39.904 200.598,39.51 L200.598,35.572 L205.718,35.572 L205.718,39.51 C211.232,39.904 216.746,41.873 221.866,45.418 L217.14,52.507 C213.595,50.144 210.051,48.569 206.112,48.175 L206.112,62.747 L206.506,62.747 C212.414,64.322 216.746,65.898 219.503,68.261 C222.26,70.624 223.835,74.169 223.835,78.501 C223.835,83.227 222.26,86.772 219.109,89.529 C215.958,92.286 211.626,93.861 206.506,94.255 L206.506,99.769 L200.992,99.769 L200.992,100.163 L200.991,100.163 Z M195.477,49.751 C194.295,50.933 193.508,52.508 193.508,54.083 C193.508,55.658 193.902,57.234 195.083,58.021 C196.265,59.203 198.234,59.99 200.991,60.778 L200.991,47.387 C198.628,47.782 196.658,48.569 195.477,49.751 Z M212.018,84.015 C213.593,82.833 214.381,81.258 214.381,79.683 C214.381,77.714 213.987,76.532 212.806,75.351 C211.625,74.17 209.655,73.382 206.504,72.2 L206.504,85.985 C208.474,85.985 210.443,85.197 212.018,84.015 Z" id="Shape" fill="#2C9984"></path>
            <g id="Group" transform="translate(124.000000, 58.000000)" fill="#E6E9EE">
                <circle id="Oval" cx="9.249" cy="9.868" r="9.058"></circle>
                <circle id="Oval" cx="148.277" cy="9.868" r="9.058"></circle>
            </g>
        </g>
    </g>
</svg>