<?xml version="1.0" encoding="UTF-8"?>
<svg width="317px" height="261px" viewBox="0 0 317 261" version="1.1" xmlns="http://www.w3.org/2000/svg" xmlns:xlink="http://www.w3.org/1999/xlink">
    <!-- Generator: Sketch 43.1 (39012) - http://www.bohemiancoding.com/sketch -->
    <title>delivery-truck</title>
    <desc>Created with Sketch.</desc>
    <defs></defs>
    <g id="Page-1" stroke="none" stroke-width="1" fill="none" fill-rule="evenodd">
        <g id="delivery-truck" fill-rule="nonzero">
            <circle id="Oval" fill="#324A5E" cx="255.797" cy="223.403" r="36.628"></circle>
            <g id="Group" transform="translate(230.000000, 198.000000)" fill="#ACB3BA">
                <circle id="Oval" cx="25.797" cy="25.403" r="10.24"></circle>
                <path d="M29.735,10.831 C27.766,11.619 23.433,11.619 21.858,10.831 C19.889,9.649 16.738,4.529 17.92,2.56 C19.889,-0.591 31.705,-0.591 33.674,2.56 C34.855,4.529 31.705,9.649 29.735,10.831 Z" id="Shape"></path>
                <path d="M21.465,39.975 C23.434,39.187 27.767,39.187 29.342,39.975 C31.311,41.157 34.462,46.277 33.28,48.246 C31.311,51.397 19.495,51.397 17.526,48.246 C16.345,46.277 19.495,40.763 21.465,39.975 Z" id="Shape"></path>
                <path d="M39.975,29.342 C39.187,27.373 39.187,23.04 39.975,21.465 C41.157,19.496 46.277,16.345 48.246,17.527 C51.397,19.496 51.397,31.312 48.246,33.281 C46.671,34.462 41.157,31.311 39.975,29.342 Z" id="Shape"></path>
                <path d="M11.225,21.465 C12.013,23.434 12.013,27.767 11.225,29.342 C10.043,31.311 4.923,34.462 2.954,33.28 C-0.197,31.311 -0.197,19.495 2.954,17.526 C4.529,15.951 10.043,19.102 11.225,21.465 Z" id="Shape"></path>
            </g>
            <circle id="Oval" fill="#2B3B4E" cx="255.797" cy="223.403" r="3.938"></circle>
            <rect id="Rectangle-path" fill="#CF9D6B" x="0.585" y="0.486" width="181.169" height="166.991"></rect>
            <polygon id="Shape" fill="#E3CA95" points="311.723 93.434 256.585 0.486 191.6 0.486 191.6 167.477 311.723 167.477"></polygon>
            <polygon id="Shape" fill="#E6E9EE" points="288.486 93.04 245.163 20.178 211.292 20.178 211.292 93.04"></polygon>
            <rect id="Rectangle-path" fill="#324A5E" x="211.292" y="111.157" width="21.268" height="6.695"></rect>
            <path d="M298.332,122.185 C298.332,129.668 304.24,135.576 311.723,135.576 L311.723,108.794 C304.24,108.794 298.332,114.702 298.332,122.185 Z" id="Shape" fill="#FFFFFF"></path>
            <path d="M307.391,130.849 C307.391,133.212 309.36,135.181 311.723,135.181 L311.723,126.516 C309.36,126.517 307.391,128.486 307.391,130.849 Z" id="Shape" fill="#F1543F"></path>
            <g id="Group" transform="translate(0.000000, 167.000000)" fill="#324A5E">
                <path d="M315.662,0.477 L0.585,0.477 L0.585,56.009 L21.459,56.009 C21.459,31.591 41.545,11.898 65.964,11.898 C90.383,11.898 110.075,31.59 110.469,56.009 L211.687,56.009 C211.687,31.591 231.773,11.898 256.192,11.898 C280.61,11.898 300.303,31.59 300.697,56.009 L316.451,56.009 L316.451,0.477 L315.662,0.477 Z" id="Shape"></path>
                <circle id="Oval" cx="65.963" cy="56.403" r="36.628"></circle>
            </g>
            <g id="Group" transform="translate(40.000000, 198.000000)" fill="#ACB3BA">
                <circle id="Oval" cx="25.963" cy="25.403" r="10.24"></circle>
                <path d="M29.902,10.831 C27.933,11.619 23.6,11.619 22.025,10.831 C20.056,9.649 16.905,4.529 18.087,2.56 C20.056,-0.591 31.872,-0.591 33.841,2.56 C35.022,4.529 31.871,9.649 29.902,10.831 Z" id="Shape"></path>
                <path d="M22.025,39.975 C23.994,39.187 28.327,39.187 29.902,39.975 C31.871,41.157 35.022,46.277 33.84,48.246 C31.871,51.397 20.055,51.397 18.086,48.246 C16.511,46.277 19.662,40.763 22.025,39.975 Z" id="Shape"></path>
                <path d="M40.535,29.342 C39.747,27.373 39.747,23.04 40.535,21.465 C41.717,19.496 46.837,16.345 48.806,17.527 C51.957,19.496 51.957,31.312 48.806,33.281 C46.837,34.462 41.323,31.311 40.535,29.342 Z" id="Shape"></path>
                <path d="M11.391,21.465 C12.179,23.434 12.179,27.767 11.391,29.342 C10.209,31.311 5.089,34.462 3.12,33.28 C-0.031,31.311 -0.031,19.495 3.12,17.526 C5.089,15.951 10.209,19.102 11.391,21.465 Z" id="Shape"></path>
            </g>
            <circle id="Oval" fill="#2B3B4E" cx="65.963" cy="223.403" r="3.938"></circle>
            <g id="Group" transform="translate(20.000000, 43.000000)" fill="#FFFFFF">
                <path d="M15.243,3.172 C17.212,4.747 18,7.11 18,10.261 C18,13.412 17.212,15.775 15.243,17.744 C13.274,19.713 10.517,20.501 6.578,20.501 L0.276,20.501 L0.276,0.809 L6.971,0.809 C10.517,0.415 13.274,1.203 15.243,3.172 Z M14.849,10.262 C14.849,5.536 12.092,3.567 6.972,3.567 L3.821,3.567 L3.821,16.958 L7.366,16.958 C9.729,16.958 11.698,16.564 12.88,15.383 C14.062,14.2 14.849,12.625 14.849,10.262 Z" id="Shape"></path>
                <polygon id="Shape" points="36.511 0.415 36.511 3.566 25.877 3.566 25.877 8.686 35.329 8.686 35.329 11.837 25.877 11.837 25.877 16.957 36.905 16.957 36.905 20.108 22.727 20.108 22.727 0.416 36.511 0.416"></polygon>
                <polygon id="Shape" points="40.843 20.108 40.843 0.416 43.994 0.416 43.994 16.958 53.052 16.958 53.052 20.109 40.843 20.109"></polygon>
                <polygon id="Shape" points="56.991 0.415 60.142 0.415 60.142 20.107 56.991 20.107"></polygon>
                <polygon id="Shape" points="74.714 20.108 71.169 20.108 63.292 0.416 66.837 0.416 72.745 15.382 79.047 0.416 82.592 0.416"></polygon>
                <polygon id="Shape" points="99.526 0.415 99.526 3.566 88.892 3.566 88.892 8.686 98.344 8.686 98.344 11.837 88.892 11.837 88.892 16.957 99.92 16.957 99.92 20.108 85.742 20.108 85.742 0.416 99.526 0.416"></polygon>
                <path d="M120.006,6.717 C120.006,9.868 118.431,12.231 115.674,13.019 L120.794,20.108 L116.462,20.108 L111.736,13.413 L107.404,13.413 L107.404,20.108 L104.253,20.108 L104.253,0.416 L111.736,0.416 C114.887,0.416 116.856,0.81 118.038,1.991 C119.218,3.172 120.006,4.748 120.006,6.717 Z M115.674,9.868 C116.462,9.474 116.856,8.293 116.856,7.111 C116.856,5.929 116.462,4.748 115.674,4.354 C114.886,3.96 113.705,3.566 112.129,3.566 L107.797,3.566 L107.797,10.655 L112.129,10.655 C113.705,10.655 114.886,10.262 115.674,9.868 Z" id="Shape"></path>
                <polygon id="Shape" points="132.215 20.108 128.67 20.108 128.67 12.231 121.187 0.416 124.732 0.416 130.246 9.474 135.76 0.416 139.305 0.416 131.822 12.231 131.822 20.108"></polygon>
            </g>
            <g id="Group" transform="translate(31.000000, 83.000000)" fill="#324A5E">
                <polygon id="Shape" points="5.818 6.102 5.818 15.16 20.39 15.16 20.39 20.28 5.818 20.28 5.818 33.671 0.304 33.671 0.304 0.982 21.966 0.982 21.966 6.102"></polygon>
                <path d="M54.655,11.615 C54.655,17.129 52.292,20.28 47.566,21.855 L56.231,33.67 L49.142,33.67 L41.265,22.642 L34.176,22.642 L34.176,33.67 L28.662,33.67 L28.662,0.981 L40.871,0.981 C45.991,0.981 49.536,1.769 51.505,3.344 C53.474,4.92 54.655,7.677 54.655,11.615 Z M47.172,15.948 C48.354,15.16 48.747,13.585 48.747,11.222 C48.747,9.253 48.353,7.677 47.172,6.89 C45.991,6.103 44.021,5.708 40.87,5.708 L33.781,5.708 L33.781,17.523 L40.476,17.523 C44.022,17.523 46.385,17.129 47.172,15.948 Z" id="Shape"></path>
                <polygon id="Shape" points="85.375 0.982 85.375 6.102 68.046 6.102 68.046 14.767 83.8 14.767 83.8 19.493 68.046 19.493 68.046 28.158 86.163 28.158 86.163 33.278 62.532 33.278 62.532 0.589 85.375 0.589"></polygon>
                <polygon id="Shape" points="116.095 0.982 116.095 6.102 98.766 6.102 98.766 14.767 114.52 14.767 114.52 19.493 98.766 19.493 98.766 28.158 116.883 28.158 116.883 33.278 93.252 33.278 93.252 0.589 116.095 0.589 116.095 0.982"></polygon>
            </g>
        </g>
    </g>
</svg>